<?xml version="1.0" encoding="utf-8"?>
<!-- Generator: Adobe Illustrator 24.0.3, SVG Export Plug-In . SVG Version: 6.00 Build 0)  -->
<svg version="1.1" xmlns="http://www.w3.org/2000/svg" xmlns:xlink="http://www.w3.org/1999/xlink" x="0px" y="0px"
	 viewBox="0 0 2000 2000" style="enable-background:new 0 0 2000 2000;" xml:space="preserve">
<style type="text/css">
	.st0{fill:#F0F812;}
	.st1{fill:#FABB10;}
	.st2{clip-path:url(#SVGID_2_);fill:#040707;}
</style>
<g id="Layer_4">
	<rect id="Background" class="st0" width="2000" height="2000"/>
</g>
<g id="Layer_3">
	<circle id="Circle" class="st1" cx="1000" cy="1000" r="862.5"/>
</g>
<g id="Layer_2">
	<g id="Text">
		<defs>
			<rect id="SVGID_1_" x="110.3" y="99" width="908" height="332.7"/>
		</defs>
		<clipPath id="SVGID_2_">
			<use xlink:href="#SVGID_1_"  style="overflow:visible;"/>
		</clipPath>
		<path class="st2" d="M110.3,336.9c0-60.8,44.2-97.8,114.3-97.8c30.6,0,54.8,7.7,76,19.1c-1.2-32.2-25.3-53.1-70.1-53.1
			c-34.7,0-63,8.3-93,22.7v-75.1c37.7-10.1,76.6-18.5,133.7-18.5c122.5,0,164.3,54.3,164.3,102v112.7h24.7v77.5H301.7v-28.6
			c-22.4,25.1-55.3,34-89.5,34C148,431.7,110.3,396.5,110.3,336.9 M303.5,330.3c0-20.3-10.6-30.4-30-30.4c-20,0-33.6,10.1-33.6,31
			c0,20.3,11.8,29.2,33,29.2C292.9,360.1,303.5,351.2,303.5,330.3"/>
		<path class="st2" d="M502.5,348.8V217.6h-23.6v-77.5h156.7v31c36.5-28,55.9-37,84.8-37c35.3,0,56.5,10.1,84.2,39.3
			c35.9-28.6,61.2-39.3,92.4-39.3c58.3,0,97.8,39.9,97.8,91.8v122.8h23.5v77.5H861.7V252.8c0-22.7-8.8-35.2-24.1-35.2
			c-14.7,0-22.4,11.3-22.4,35.2v96h20v77.5H682.1V251.6c0-20.3-9.4-34-23-34c-14.7,0-23.6,13.1-23.6,34v97.2h20.6v77.5H478.9v-77.5
			H502.5z"/>
	</g>
</g>
</svg>
