<?xml version="1.0" encoding="utf-8"?>
<!-- Generator: Adobe Illustrator 24.1.1, SVG Export Plug-In . SVG Version: 6.00 Build 0)  -->
<svg version="1.0" id="Layer_1" xmlns="http://www.w3.org/2000/svg" xmlns:xlink="http://www.w3.org/1999/xlink" x="0px" y="0px"
	 viewBox="0 0 252.2 42.9" style="enable-background:new 0 0 252.2 42.9;" xml:space="preserve">
<style type="text/css">
	.st0{fill:#DD5D4B;}
	.st1{fill:#FFFFFF;}
</style>
<path class="st0" d="M84.2,42.9H6.7c-3.7,0-6.7-3-6.7-6.7V6.7C0,3,3,0,6.7,0h77.5c3.7,0,6.7,3,6.7,6.7v29.5
	C90.9,39.9,87.9,42.9,84.2,42.9z"/>
<g>
	<path d="M124.8,34.2h-5.7l-1.7-5.6h-7.5l-1.8,5.6h-4.6l7.7-23.6h5.7L124.8,34.2z M116.2,24.6l-2.5-8.5l-2.6,8.5H116.2z"/>
	<path d="M142.9,15h-6.4v19.2h-5.5V15h-6.4v-4.4h18.2V15z"/>
	<path d="M174.9,34.2h-5.5v-9.9h-7.7v9.9h-5.5V10.6h5.5V20h7.7v-9.4h5.5V34.2z"/>
	<path d="M197.8,31.2c-1.9,2.2-4.5,3.5-7.7,3.5c-3.5,0-5.9-1.4-7.7-3.5c-2-2.3-2.8-5.3-2.8-8.7c0-3.6,1-7.2,3.3-9.3
		c1.8-1.8,4.1-2.9,7.2-2.9c3.1,0,5.4,1.1,7.2,2.9c2.2,2.2,3.2,5.6,3.2,9.3C200.6,26.1,199.6,29,197.8,31.2z M190,14.4
		c-3.8,0-4.7,4.1-4.7,8.1c0,5.5,1.4,8,4.7,8c3.3,0,4.7-2.7,4.7-8C194.8,18.2,194,14.4,190,14.4z"/>
	<path d="M229.7,34.2h-5.3V16.1l-5.7,18.1h-3.6l-5.7-18.4v18.4h-4.4V10.6h7.4l5,15.5l4.8-15.5h7.3V34.2z"/>
	<path d="M252.2,34.2h-16.7V10.6h16.4V15H241v5.1h7.1v4.4H241v5.3h11.2V34.2z"/>
</g>
<g>
	<path class="st1" d="M28.7,31.6H14.8V10.7h4.8v17h9.1V31.6z"/>
	<path class="st1" d="M36.9,31.6h-4.8V10.7h4.8V31.6z"/>
	<path class="st1" d="M58.5,10.7l-6.9,20.9h-4.8L40,10.7H45l4.6,15.6l4.7-15.6H58.5z"/>
	<path class="st1" d="M76.2,31.6H61.4V10.7h14.5v3.9h-9.7v4.5h6.2V23h-6.2v4.7h9.9V31.6z"/>
</g>
</svg>
