<?xml version="1.0" encoding="utf-8"?>
<!-- Generator: Adobe Illustrator 24.3.0, SVG Export Plug-In . SVG Version: 6.00 Build 0)  -->
<svg version="1.1" id="Type" xmlns="http://www.w3.org/2000/svg" xmlns:xlink="http://www.w3.org/1999/xlink" x="0px" y="0px"
	 viewBox="0 0 122.7 61.4" style="enable-background:new 0 0 122.7 61.4;" xml:space="preserve">
<style type="text/css">
	.st0{fill:#FFFFFF;}
</style>
<g>
	<g>
		<g>
			<path class="st0" d="M7.2,52.5H0V40.3h7.2c0,3.9,2.8,5.6,4.8,5.6c1.8,0,3.2-1.3,3.2-2.9c0-1.2-0.9-2.3-2.5-3l-6-2.8
				c-3.3-1.6-5.9-4.7-5.9-9.1c0-6,4.7-10.6,10.9-10.6c2.4,0,4.7,0.5,7.7,1.8v-1.2h7.1v10.5h-7.2c0-3-1.4-4.9-3.7-4.9
				c-1.7,0-2.9,1-2.9,2.4c0,1.1,0.7,2,2.1,2.7l6.9,3.4c3.9,1.9,6.5,5.7,6.5,9.9c0,5.8-4.1,10.8-12,10.8c-3.1,0-4.7-0.4-9-2.7V52.5z"
				/>
			<path class="st0" d="M43,52.5h-8.9l-4.3-17.1h-1.5V29h13.3v6.4h-1.7l1.1,7.1h0.1L46.3,29h6.8l4,13.5h0.1l2.1-7.1h-1.4V29h8.9v6.4
				h-0.9l-5.4,17.1h-9.2l-3.8-11.1L43,52.5z"/>
			<path class="st0" d="M75,53c-5.3,0-8.5-2.9-8.5-7.8c0-5,3.7-8,9.5-8c2.5,0,4.6,0.6,6.3,1.6c-0.1-2.6-2.1-4.4-5.8-4.4
				c-2.9,0-5.2,0.7-7.7,1.9V30c3.1-0.8,6.4-1.5,11.1-1.5c10.2,0,13.7,4.5,13.7,8.4v9.3h2.1v6.4H82.5v-2.4C80.6,52.2,77.9,53,75,53z
				 M82.6,44.6c0-1.7-0.9-2.5-2.5-2.5c-1.7,0-2.8,0.8-2.8,2.5c0,1.7,1,2.4,2.7,2.4C81.7,47.1,82.6,46.3,82.6,44.6z"/>
			<path class="st0" d="M113.1,61.4H98.1v-6.4h4.1l1.7-3.1l-7.4-16.6H95V29h14.4v6.4h-1.8l2.5,5.8l3.3-5.8h-2V29h11.4v6.4h-1.3
				l-11.4,19.7h3V61.4z"/>
		</g>
		<g>
			<path class="st0" d="M8.3,1.5C8.3,0.3,7.2,0,6.2,0v0.1c0.6,0,1,0.3,1,0.7C7.2,1,7,1.4,6.5,1.4C6,1.4,5.3,1.1,4.6,0.9
				C3.8,0.6,3.1,0.4,2.5,0.4c-1.2,0-2.1,0.9-2.1,2c0,0.9,0.7,1.2,1,1.3l0,0C1.2,3.5,1.1,3.3,1.1,3c0-0.3,0.2-0.7,0.8-0.7
				c0.6,0,1.3,0.2,2.2,0.5C5,3,5.9,3.2,6.4,3.3v1.9L5.4,6l0.9,0.8v2.6c-0.5,0.3-1,0.4-1.5,0.4c-0.9,0-1.7-0.2-2.4-1L5,7.6V3.4
				L1.9,4.7c0.3-0.8,0.9-1.4,1.6-1.8l0,0C1.7,3.4,0,5.1,0,7.1c0,2.5,2,4.3,4.3,4.3c2.5,0,3.9-1.9,3.9-4h0C7.8,8.2,7.2,9,6.5,9.4V6.8
				l1-0.8l-1-0.8V3.3C7.4,3.3,8.3,2.7,8.3,1.5 M3.1,8.3L2.4,8.7C2,8.1,1.7,7.3,1.7,6.3c0-0.4,0-1,0.2-1.4l1.3-0.6L3.1,8.3z
				 M14.6,4.9l-0.5,0.4L12.7,4L11,5.3v-5L8.7,1.9C9,2,9.3,2.1,9.3,2.7v7l-0.8,0.6l0.1,0.1L9,10.1l1.4,1.3l1.8-1.2L12.1,10l-0.5,0.3
				L11,9.7V5.5l0.4-0.3l1,0.9v3.7c0,2.3-0.5,2.8-1.6,3.2v0.1c1.7,0.1,3.3-0.5,3.3-3.5v-4L14.6,4.9L14.6,4.9z M17.7,11.3l2.7-2.1
				l-0.1-0.1l-1.4,1.1l-1.6-1.3V8.1l2.8-1.9L18.7,4l-3.1,1.7v4L15,10.2l0.1,0.1l0.6-0.5L17.7,11.3z M17.3,8v-3L18.6,7L17.3,8z
				 M31.4,0.9c0-0.2,0-0.3-0.1-0.6h0c-0.2,0.5-0.4,0.8-1,0.8c-0.5,0-0.9-0.3-1.1-0.6c0,0-1.7,2-1.7,2l0.1,0.1l0.5-0.6
				c0.4,0.3,0.7,0.6,1.6,0.6v5.1l-3.6-6.2c-0.3-0.5-0.8-1.2-1.6-1.2c-1,0-1.7,0.8-1.6,2.2h0.1C22.9,2.4,23.1,2,23.5,2
				c0.3,0,0.6,0.3,0.8,0.6v2c-1.1,0-1.7,0.5-1.7,1.4c0,0.4,0.3,1.1,1,1.3v0c-0.1-0.1-0.2-0.2-0.2-0.4c0-0.3,0.2-0.5,0.7-0.5
				c0.1,0,0.2,0,0.2,0v2.6C23,8.9,22,9.6,22,10.8c0,1.2,1,1.7,2.1,1.6v0c-0.7-0.1-1-0.4-1-0.9c0-0.5,0.4-0.8,0.9-0.8
				c0.5,0,0.8,0.3,1.1,0.7l1.7-2l-0.1-0.1l-0.5,0.5c-0.7-0.6-1.1-0.9-1.9-1V2.8l4.9,8.6h0.3V2.8C30.5,2.7,31.4,2,31.4,0.9 M33,11.3
				l2.7-2.1l-0.1-0.1l-1.4,1.1l-1.6-1.3V8.1l2.8-1.9L34,4l-3.1,1.7v4l-0.6,0.5l0.1,0.1L31,9.8L33,11.3z M32.6,8v-3L34,7L32.6,8z
				 M45.1,4.7L44.7,5l-1.2-1l-1.4,1.2l0.6,0.5v4.6l-1.4-0.9V5.7l0.5-0.3L40.4,4l-1.3,1.2l0.6,0.5v4.4l-0.1,0.1l-1.3-0.9V5.7
				c0-0.8-0.4-1.1-1-1.4c-0.5-0.3-0.7-0.5-0.7-1c0-0.5,0.4-0.7,0.5-0.7c-0.5,0-1.8,0.5-1.8,1.6c0,0.6,0.3,0.9,0.6,1.2
				c0.3,0.3,0.6,0.6,0.6,1.1V10l-0.6,0.5l0.1,0.1l0.6-0.5l1.6,1.3l1.5-1l1.6,1l3.2-1.9V5.3L45.1,4.7L45.1,4.7z M55.9,1.3l-0.6,0.6
				l-1.4-1.2L52,2.1V0.7h-0.1v10c-0.2,0-0.6-0.1-1.1-0.2V2.1c0-0.6-0.4-1.5-1.5-1.5c-1.1,0-1.8,0.9-1.8,1.7h0
				c0.1-0.4,0.3-0.7,0.7-0.7c0.4,0,0.7,0.2,0.7,1v2.4c-1,0-1.7,0.7-1.7,1.4c0,0.4,0.2,1.1,1,1.2V7.6C48,7.5,48,7.4,48,7.2
				c0-0.3,0.3-0.5,0.8-0.5h0.1v3.8c-0.9,0.3-1.3,0.9-1.3,1.6c0,1,0.8,1.8,2,1.8c0.8,0,1.4-0.1,2.2-0.3c0.6-0.1,1.3-0.3,1.7-0.3
				c0.5,0,0.7,0.2,0.7,0.5c0,0.4-0.2,0.6-0.4,0.7v0.1c1-0.2,1.6-0.8,1.6-1.7c0-0.9-0.9-1.5-1.9-1.5c-0.5,0-1.4,0.2-2.2,0.3
				c-0.8,0.2-1.6,0.3-1.8,0.3c-0.4,0-0.9-0.2-0.9-0.8c0-0.5,0.4-0.9,1.5-0.9c0.6,0,1.1,0.1,1.8,0.2c0.7,0.2,1.3,0.4,1.9,0.4
				c0.9,0,1.6-0.3,1.6-1.6V1.9L55.9,1.3L55.9,1.3z M53.4,5.3c-0.2,0.2-0.3,0.3-0.7,0.3c-0.3,0-0.5-0.2-0.7-0.3v-3l0.4-0.3l0.9,0.8
				V5.3z M53.4,6.7c-0.1-0.1-0.3-0.3-0.7-0.3c-0.3,0-0.5,0.2-0.7,0.3V5.4c0.1,0.1,0.3,0.3,0.7,0.3c0.3,0,0.5-0.1,0.7-0.3V6.7z
				 M53.4,9.7c0,0.5-0.2,1-0.9,1c-0.1,0-0.3,0-0.4,0V6.8c0.1-0.1,0.3-0.3,0.7-0.3c0.3,0,0.5,0.1,0.7,0.3V9.7z M58.5,11.3l3-1.8v-4
				L59.6,4l-3,1.7v4L56,10.2l0.1,0.1l0.5-0.4L58.5,11.3z M58.3,9.2V4.9L59.8,6v4.3L58.3,9.2z M67.2,4.1c-0.2,0.2-0.4,0.2-0.7,0.2
				c-0.2,0-0.5-0.1-0.7-0.3c0,0-1.1,1.2-1.1,1.2L63.6,4l-1.8,1.3l0.1,0.1l0.5-0.3L63,5.8v3.9l-0.8,0.6l0.1,0.1l0.4-0.3l1.5,1.3
				l1.9-1.2L66,10l-0.5,0.3l-0.8-0.7V5.3c0.3,0.3,0.7,0.6,1.1,0.6C66.6,5.9,67.1,5,67.2,4.1 M74.2,9.9l-0.6,0.3l-3.1-4.6l0.2-0.2
				c0.3,0.2,0.6,0.5,1.3,0.5c0.6,0,1.5-0.7,1.5-1.9c-0.2,0.2-0.5,0.5-1,0.5c-0.4,0-0.8-0.2-1-0.5l-2.1,3.1l2.8,4.2l2-1.3L74.2,9.9z
				 M70.5,10L70,10.3l-0.6-0.6V0.3l-2.3,1.6c0.3,0.1,0.6,0.2,0.6,0.8v7l-0.8,0.6l0.1,0.1l0.4-0.3l1.4,1.3L70.5,10L70.5,10z M84,1.5
				C84,0.3,82.8,0,81.9,0v0.1c0.6,0,1,0.3,1,0.7c0,0.3-0.2,0.6-0.8,0.6c-0.5,0-1.2-0.3-1.9-0.5c-0.8-0.3-1.5-0.5-2.1-0.5
				c-1.2,0-2.1,0.9-2.1,2c0,0.9,0.7,1.2,1,1.3l0,0c-0.2-0.1-0.3-0.2-0.3-0.6c0-0.3,0.2-0.7,0.8-0.7c0.6,0,1.3,0.2,2.2,0.5
				C80.6,3,81.5,3.2,82,3.3v1.9L81.1,6L82,6.8v2.6c-0.5,0.3-1,0.4-1.5,0.4c-0.9,0-1.7-0.2-2.4-1l2.5-1.2V3.4l-3.1,1.4
				c0.3-0.8,0.9-1.4,1.6-1.8l0,0c-1.8,0.5-3.5,2.2-3.5,4.2c0,2.5,2,4.3,4.3,4.3c2.5,0,3.9-1.9,3.9-4h0c-0.4,0.8-1,1.5-1.6,1.9V6.8
				l1-0.8l-1-0.8V3.3C83,3.3,84,2.7,84,1.5 M78.8,8.3l-0.7,0.4c-0.4-0.6-0.7-1.4-0.7-2.4c0-0.4,0-1,0.2-1.4l1.3-0.6L78.8,8.3z
				 M85.8,1.1l-1.3,1.1l1.1,1.2l1.3-1.1L85.8,1.1z M87.8,10l-0.5,0.3l-0.6-0.6V5.4L87.2,5l-0.1-0.1l-0.5,0.3L85.6,4l-1.7,1.2
				l0.1,0.1l0.4-0.3l0.6,0.7v3.9l-0.8,0.6l0.1,0.1l0.4-0.3l1.4,1.3L87.8,10L87.8,10z M97.6,10l-0.4,0.3l-0.7-0.7V5.4L97,5l-0.1-0.1
				l-0.5,0.4L95,4l-1.6,1.3L91.9,4l-1.6,1.3L89.2,4l-1.7,1.2l0.1,0.1L88,5.1l0.6,0.7v3.9l-0.5,0.5l1.4,1.2l1.4-1.2l-0.6-0.5V5.4
				l0.4-0.3l1,0.9v3.6l-0.5,0.5l1.4,1.2l1.3-1.2l-0.6-0.5V5.4l0.3-0.3l1,0.9v3.6L94.3,10l1.4,1.3L97.6,10L97.6,10z M102.7,9.1
				l-1.4,1.1l-1.6-1.3V8.1l2.8-1.9L101,4L98,5.7v4.1l2.1,1.5l2.7-2.1L102.7,9.1z M99.7,8v-3L101,7L99.7,8z M108,7.4l-1.2-0.9
				c0.8-0.7,1.1-1.6,1.1-2.2c0-0.1,0-0.2,0-0.4h0c-0.1,0.3-0.4,0.6-0.9,0.6c-0.5,0-0.7-0.3-1-0.6l-2.7,1.5v2.2l1,0.8
				c-1,0.9-1.2,1.5-1.2,2c0,0.5,0.3,1,0.8,1.2l0-0.1c-0.1-0.1-0.2-0.2-0.2-0.5c0-0.2,0.2-0.5,0.7-0.5c0.6,0,1,0.4,1.1,0.6
				c0,0,2.6-1.6,2.6-1.6V7.4z M107.4,5.6c-0.4,0.7-1.3,1.4-1.8,1.8l-0.7-0.6V4.7c0.3,0.6,0.8,1.1,1.5,1.1
				C106.8,5.8,107.1,5.7,107.4,5.6 M106.3,10.4c-0.3-0.7-1-1.2-1.7-1.2c-0.2,0-0.7,0-1.2,0.3c0.3-0.5,1.1-1.3,2.2-1.9l0.7,0.6V10.4z
				"/>
		</g>
	</g>
</g>
</svg>
