<?xml version="1.0" encoding="utf-8"?>
<!-- Generator: Adobe Illustrator 24.1.2, SVG Export Plug-In . SVG Version: 6.00 Build 0)  -->
<svg version="1.1" id="Layer_1" xmlns="http://www.w3.org/2000/svg" xmlns:xlink="http://www.w3.org/1999/xlink" x="0px" y="0px"
	 viewBox="0 0 283.4 38.7" style="enable-background:new 0 0 283.4 38.7;" xml:space="preserve">
<style type="text/css">
	.st0{fill:#FFFFFF;}
</style>
<path class="st0" d="M21.8,4c0-3.1-3-4.1-5.5-4v0.3C17.8,0.4,19,1,19,2c0,0.7-0.5,1.6-2,1.6c-1.7-0.2-3.4-0.7-5-1.3
	c-1.8-0.7-3.6-1.2-5.5-1.3C3.5,0.8,1,3,0.9,6c0,0,0,0.1,0,0.1c0,1.6,1,3,2.5,3.4V9.4c-0.6-0.3-0.9-1-0.8-1.6c0-1.1,0.9-2,2-2
	c0.1,0,0.1,0,0.2,0c2,0.2,4,0.7,5.9,1.4c1.9,0.6,3.8,1,5.8,1.3v5.1l-2.4,2l2.4,2.1v7c-1.2,0.7-2.6,1-4,1c-2.4,0.1-4.6-0.8-6.2-2.6
	l6.6-3.2v-11l-8,3.5c0.8-2,2.3-3.7,4.1-4.8V7.6C4.4,8.9,0,13.3,0,18.7C-0.1,24.9,4.9,29.9,11.1,30c0,0,0.1,0,0.1,0
	c5.5,0.1,10.1-4.2,10.2-9.8c0-0.2,0-0.5,0-0.7h-0.1c-0.9,2.1-2.4,3.8-4.3,5v-6.8l2.6-2.1l-2.5-2V8.6c2.5,0.1,4.7-1.8,4.8-4.3
	C21.8,4.2,21.8,4.1,21.8,4 M8.2,21.9l-1.9,1c-1.3-1.8-2-4-1.9-6.3c0-1.3,0.1-2.5,0.5-3.7l3.3-1.5L8.2,21.9z M38.4,13l-1.3,1
	l-3.8-3.4L28.9,14V0.7l-6,4.2c1,0.2,1.7,1.2,1.5,2.2v18.3l-2.1,1.6l0.2,0.2l1-0.7l3.6,3.3l4.8-3.2l-0.1-0.2l-1.2,0.8l-1.7-1.7v-11
	l1.1-0.8l2.6,2.3v9.6c0,6.1-1.3,7.3-4.1,8.3v0.1c4.5,0.2,8.6-1.3,8.6-9.1V14.3l1.4-1.1L38.4,13z M46.5,29.7l7-5.6l-0.2-0.3l-3.7,2.9
	l-4.2-3.3v-2.1l7.3-5.1L49,10.5l-8,4.4v10.5l-1.6,1.2l0.2,0.2l1.5-1.2L46.5,29.7z M45.4,20.9v-8l3.5,5.5L45.4,20.9z M82.3,2.5
	c0-0.5-0.1-1-0.3-1.5h-0.1c-0.5,1.3-1,2.1-2.6,2.1c-1.2-0.1-2.2-0.6-3-1.5l-4.6,5.3l0.2,0.2l1.3-1.5c1.1,1.1,2.6,1.7,4.1,1.7v13.4
	L67.9,4.4c-0.7-1.2-2-3-4.1-3c-2.5,0-4.4,2.2-4.1,5.8h0.1c0.2-0.9,0.7-2.1,1.8-2.1c0.9,0,1.6,0.8,2,1.6V12c-2.9,0-4.5,1.3-4.5,3.6
	c0,1.6,1.1,3,2.7,3.4v-0.1c-0.3-0.2-0.5-0.6-0.5-1c0-0.9,0.6-1.4,1.8-1.4c0.2,0,0.4,0,0.6,0.1v6.8c-3.4,0-6,1.9-6,5.1
	c0,3,2.6,4.5,5.4,4.3v-0.1c-1.7-0.2-2.6-1.1-2.6-2.3c-0.1-1.1,0.8-2,1.9-2.1c0.1,0,0.2,0,0.4,0c1.2,0.1,2.3,0.7,3,1.7l4.6-5.1
	l-0.2-0.2L68.9,26c-1.3-1.4-3-2.3-4.9-2.6V7.2l12.9,22.6h0.7V7.3C80.2,7.2,82.3,5.1,82.3,2.5 M86.7,29.7l7-5.6l-0.2-0.3l-3.7,2.9
	l-4.2-3.3v-2.1l7.3-5.1l-3.7-5.7l-8,4.4v10.5l-1.6,1.2l0.2,0.2l1.5-1.2L86.7,29.7z M85.6,20.9v-8l3.5,5.5L85.6,20.9z M118.5,12.4
	l-1.1,0.8l-3-2.6l-3.6,3.1l1.5,1.4v12l-3.6-2.5v-9.7l1.3-0.9l-3.7-3.5l-3.5,3.2l1.5,1.4v11.6l-0.2,0.1l-3.4-2.5v-9.5
	c0-2.2-1.1-2.9-2.5-3.7c-1.2-0.7-1.8-1.4-1.8-2.5c0.1-0.9,0.6-1.6,1.4-1.9c-1.2,0-4.6,1.2-4.7,4.3c0,1.2,0.5,2.4,1.5,3
	c0.9,0.7,1.5,1.7,1.6,2.8v9.3l-1.6,1.3l0.2,0.2l1.6-1.2l4.1,3.3L104,27l4.3,2.7l8.4-5V14l1.9-1.5L118.5,12.4z M146.6,3.4L145,4.7
	l-3.6-3.1l-4.9,3.9V1.8h-0.3V28c-0.5-0.1-1.6-0.4-2.9-0.6V5.5c0-2.1-1.7-3.8-3.8-3.8c-0.1,0-0.1,0-0.2,0c-2.5,0-4.6,2-4.7,4.5h0.1
	c0.1-0.9,0.8-1.7,1.8-1.8c1,0,1.8,0.6,1.8,2.8v6.3c-2.7,0.1-4.4,1.8-4.4,3.6c-0.1,1.6,1.1,2.9,2.7,3V20c-0.7-0.3-0.8-0.6-0.8-1
	c0-0.9,0.9-1.2,2.1-1.2h0.3v10.1c-2.3,0.8-3.4,2.4-3.4,4.3c0,2.7,2.1,4.7,5.3,4.7c2,0,3.9-0.3,5.8-0.8c1.4-0.4,2.9-0.6,4.4-0.7
	c1.2,0,1.8,0.5,1.8,1.4c0,1.1-0.4,1.7-1.1,1.9v0.1c2.6-0.5,4.2-2,4.2-4.4s-2.3-3.9-4.9-3.9c-1.9,0.1-3.9,0.4-5.8,0.9
	c-1.6,0.4-3.2,0.6-4.8,0.7c-1.1,0-2.5-0.5-2.5-2c0-1.3,1.1-2.4,3.9-2.4c1.6,0,3.2,0.3,4.8,0.6c2,0.4,3.3,1,5,1
	c2.3,0,4.2-0.8,4.2-4.2V5.1l1.7-1.6L146.6,3.4z M140,13.8c-0.4,0.5-1,0.8-1.7,0.8c-0.7,0-1.3-0.3-1.8-0.8V5.9l1.1-0.9l2.3,2
	L140,13.8z M140,17.5c-0.4-0.5-1.1-0.7-1.7-0.7c-0.7,0-1.3,0.3-1.8,0.7v-3.4c0.5,0.5,1.1,0.7,1.8,0.8c0.7,0,1.3-0.3,1.7-0.8V17.5z
	 M140,25.4c0,1.3-0.6,2.8-2.3,2.8c-0.3,0-0.9,0-1.1-0.1V17.9c0.5-0.5,1.1-0.8,1.8-0.8c0.7,0,1.3,0.3,1.7,0.8L140,25.4z M153.6,29.7
	l7.8-4.9V14.2l-5-3.7l-7.8,4.5v10.5l-1.6,1.2l0.1,0.2l1.3-1L153.6,29.7z M153,24.2V12.9l3.9,2.9v11.3L153,24.2z M176.3,10.8
	c-0.5,0.4-1.1,0.6-1.7,0.6c-0.7,0-1.3-0.4-1.8-0.9l-2.9,3.1l-2.9-3.1l-4.7,3.3l0.1,0.3l1.3-0.8l1.7,1.9v10.3l-2.1,1.6l0.2,0.2l1-0.7
	l3.9,3.3l4.9-3.2l-0.1-0.2l-1.3,0.8l-2-1.8V13.9c0.7,0.9,1.7,1.5,2.8,1.6C174.6,15.6,176,13.2,176.3,10.8 M194.6,26l-1.5,0.9l-8-12
	l0.4-0.6c0.9,0.8,2.1,1.2,3.4,1.3c1.6,0,3.8-1.8,4-5c-0.6,0.8-1.6,1.3-2.6,1.3c-1-0.1-1.9-0.5-2.6-1.3l-5.5,8.1l7.3,11l5.3-3.5
	L194.6,26z M184.8,26.3l-1.2,0.8l-1.6-1.7V0.7l-6,4.2c1,0.2,1.7,1.2,1.5,2.2v18.3l-2.1,1.6l0.2,0.2l1-0.7l3.6,3.3l4.8-3.2
	L184.8,26.3z M220.3,4c0-3.1-3-4.1-5.5-4v0.3c1.5,0.1,2.6,0.7,2.6,1.7c0,0.7-0.5,1.6-2,1.6c-1.7-0.2-3.4-0.7-5-1.3
	c-1.8-0.7-3.6-1.2-5.5-1.3C202,0.8,199.5,3,199.4,6c0,0,0,0.1,0,0.1c0,1.6,1,3,2.5,3.4V9.4c-0.6-0.3-0.9-1-0.8-1.6c0-1.1,0.9-2,2-2
	c0.1,0,0.1,0,0.2,0c2,0.2,4,0.7,5.9,1.4c1.9,0.6,3.8,1,5.8,1.3v5.1l-2.4,2l2.4,2.1v7c-1.2,0.7-2.6,1-4,1c-2.4,0.1-4.6-0.8-6.2-2.6
	l6.6-3.2v-11l-8,3.6c0.8-2,2.3-3.7,4.1-4.8V7.6c-4.8,1.3-9.1,5.7-9.1,11.1c-0.1,6.2,4.9,11.2,11.1,11.3c0,0,0.1,0,0.1,0
	c5.5,0.1,10.1-4.2,10.2-9.8c0-0.2,0-0.5,0-0.7h-0.1c-0.9,2.1-2.4,3.8-4.3,5v-6.8l2.6-2.1l-2.6-2.1V8.5c2.5,0.1,4.7-1.8,4.8-4.3
	C220.2,4.1,220.2,4,220.3,4 M206.6,21.8l-1.9,1c-1.3-1.8-2-4-1.9-6.3c0-1.3,0.1-2.5,0.5-3.7l3.3-1.5L206.6,21.8z M225.1,2.8
	l-3.4,2.8l2.9,3.2l3.4-2.8L225.1,2.8z M230.2,26.2L229,27l-1.7-1.7V14.2l1.4-1.1l-0.2-0.2l-1.2,0.9l-2.8-3.3l-4.4,3.2l0.1,0.3
	l1.1-0.8l1.5,1.9v10.2l-2.1,1.6l0.2,0.2l1-0.7l3.6,3.3l4.8-3.2L230.2,26.2z M255.9,26.1l-1.1,0.8l-1.8-1.7V14.3l1.5-1.1l-0.2-0.2
	l-1.3,1l-3.8-3.4l-4.1,3.4l-3.8-3.4l-4.2,3.3l-2.9-3.3l-4.6,3.2l0.1,0.3l1.1-0.8l1.6,1.9v10.2l-1.3,1.3l3.7,3.1l3.5-3.2l-1.4-1.3
	V14.2l1-0.7l2.6,2.3v9.5l-1.2,1.3l3.6,3.1l3.5-3.2l-1.5-1.4V14.2l0.9-0.7l2.7,2.3v9.4l-1.1,1.1l3.7,3.4l4.9-3.4L255.9,26.1z
	 M269.3,23.7l-3.7,2.9l-4.2-3.3v-2l7.3-5.1l-3.7-5.7l-8,4.4v10.7l5.5,4l7-5.6L269.3,23.7z M261.4,20.8v-8l3.5,5.5L261.4,20.8z
	 M283.3,19.3l-3.1-2.4c1.7-1.4,2.7-3.5,2.8-5.7c0-0.2,0-0.6-0.1-1h-0.1c-0.4,1-1.3,1.6-2.4,1.6c-1.1-0.1-2.1-0.6-2.7-1.5l-7.1,3.9
	V20l2.7,2.1c-2.7,2.4-3.2,3.9-3.2,5.3c0,1.4,0.9,2.7,2.2,3.1l0.1-0.2c-0.4-0.3-0.7-0.7-0.7-1.2c0.1-0.9,0.9-1.5,1.7-1.4
	c0.1,0,0.1,0,0.2,0c1.2,0.1,2.3,0.7,3,1.6l6.8-4.2L283.3,19.3z M281.7,14.6c-1.1,1.9-3.4,3.8-4.8,4.9l-1.7-1.5v-5.6
	c0.6,1.6,2.2,2.7,3.9,2.8C280,15.2,280.9,15,281.7,14.6 M278.7,27.2c-0.7-1.8-2.5-3-4.4-3.1c-1.1-0.1-2.1,0.2-3.1,0.7
	c1.6-2.1,3.5-3.8,5.8-5l1.9,1.6L278.7,27.2z"/>
</svg>
